<?xml version="1.0" encoding="UTF-8"?>
<svg width="640px" height="272px" viewBox="0 0 640 272" version="1.1" xmlns="http://www.w3.org/2000/svg" xmlns:xlink="http://www.w3.org/1999/xlink">
    <title>Bitcoin, Ethereum, Solana</title>
    <g id="Bitcoin,-Ethereum,-Solana" stroke="none" stroke-width="1" fill="none" fill-rule="evenodd">
        <rect fill="#F5FCFF" x="0" y="0" width="640" height="272"></rect>
        <circle id="Oval-Copy-13" fill="#10162F" cx="170" cy="139" r="86"></circle>
        <circle id="Oval-Copy-14" fill="#10162F" cx="463" cy="139" r="86"></circle>
        <g id="Group-4" transform="translate(88.000000, 50.000000)">
            <circle id="Oval" fill="#FFD300" cx="86" cy="86" r="86"></circle>
            <path d="M86,0 C133.496488,0 172,38.5035115 172,86 C172,133.496488 133.496488,172 86,172 C38.5035115,172 0,133.496488 0,86 C0,38.5035115 38.5035115,0 86,0 Z M86,1 C39.0557963,1 1,39.0557963 1,86 C1,132.944204 39.0557963,171 86,171 C132.944204,171 171,132.944204 171,86 C171,39.0557963 132.944204,1 86,1 Z" id="Oval" fill="#10162F" fill-rule="nonzero"></path>
            <g id="ethereum" transform="translate(36.284840, 113.969000)" fill="#10162F" fill-rule="nonzero" stroke="#10162F" stroke-width="0.25">
                <path d="M5.313,8.976 C6.831,8.976 8.1015,9.548 9.1245,10.692 C10.1475,11.836 10.659,13.178 10.659,14.718 C10.659,15.026 10.494,15.18 10.164,15.18 L0.957,15.18 C1.067,16.368 1.529,17.391 2.343,18.249 C3.157,19.107 4.147,19.536 5.313,19.536 C6.919,19.536 8.184,18.887 9.108,17.589 C9.218,17.435 9.35,17.358 9.504,17.358 C9.812,17.358 9.966,17.512 9.966,17.82 C9.966,17.908 9.944,17.985 9.9,18.051 C8.976,19.657 7.447,20.46 5.313,20.46 C3.817,20.46 2.5575,19.888 1.5345,18.744 C0.5115,17.6 0,16.258 0,14.718 C0,13.178 0.506,11.836 1.518,10.692 C2.53,9.548 3.795,8.976 5.313,8.976 Z M0.957,14.256 L9.669,14.256 C9.559,13.068 9.097,12.045 8.283,11.187 C7.469,10.329 6.479,9.9 5.313,9.9 C4.147,9.9 3.157,10.329 2.343,11.187 C1.529,12.045 1.067,13.068 0.957,14.256 Z" id="Shape"></path>
                <path d="M17.07604,9.207 L19.55104,9.207 C19.85904,9.207 20.01304,9.361 20.01304,9.669 C20.01304,9.977 19.85904,10.131 19.55104,10.131 L17.07604,10.131 L17.07604,19.833 C17.07604,20.141 16.92204,20.295 16.61404,20.295 C16.30604,20.295 16.15204,20.141 16.15204,19.833 L16.15204,10.131 L13.77604,10.131 C13.46804,10.131 13.31404,9.977 13.31404,9.669 C13.31404,9.361 13.46804,9.207 13.77604,9.207 L16.15204,9.207 L16.15204,5.643 C16.15204,5.335 16.30604,5.181 16.61404,5.181 C16.92204,5.181 17.07604,5.335 17.07604,5.643 L17.07604,9.207 Z" id="Path"></path>
                <path d="M28.08008,9.009 C29.37808,9.009 30.42308,9.515 31.21508,10.527 C31.96308,11.451 32.33708,12.573 32.33708,13.893 L32.33708,19.767 C32.33708,20.075 32.18308,20.229 31.87508,20.229 C31.56708,20.229 31.41308,20.075 31.41308,19.767 L31.41308,13.893 C31.41308,12.815 31.12708,11.913 30.55508,11.187 C29.93908,10.351 29.11408,9.933 28.08008,9.933 C26.73808,9.933 25.71508,10.45 25.01108,11.484 C24.37308,12.43 24.09808,13.585 24.18608,14.949 C24.20808,15.235 24.21908,15.367 24.21908,15.345 L24.21908,19.767 C24.21908,20.075 24.06508,20.229 23.75708,20.229 C23.44908,20.229 23.29508,20.075 23.29508,19.767 L23.29508,0.462 C23.29508,0.154 23.44908,0 23.75708,0 C24.06508,0 24.21908,0.154 24.21908,0.462 L24.21908,11.385 C25.09908,9.801 26.38608,9.009 28.08008,9.009 Z" id="Path"></path>
                <path d="M41.22912,8.976 C42.74712,8.976 44.01762,9.548 45.04062,10.692 C46.06362,11.836 46.57512,13.178 46.57512,14.718 C46.57512,15.026 46.41012,15.18 46.08012,15.18 L36.87312,15.18 C36.98312,16.368 37.44512,17.391 38.25912,18.249 C39.07312,19.107 40.06312,19.536 41.22912,19.536 C42.83512,19.536 44.10012,18.887 45.02412,17.589 C45.13412,17.435 45.26612,17.358 45.42012,17.358 C45.72812,17.358 45.88212,17.512 45.88212,17.82 C45.88212,17.908 45.86012,17.985 45.81612,18.051 C44.89212,19.657 43.36312,20.46 41.22912,20.46 C39.73312,20.46 38.47362,19.888 37.45062,18.744 C36.42762,17.6 35.91612,16.258 35.91612,14.718 C35.91612,13.178 36.42212,11.836 37.43412,10.692 C38.44612,9.548 39.71112,8.976 41.22912,8.976 Z M36.87312,14.256 L45.58512,14.256 C45.47512,13.068 45.01312,12.045 44.19912,11.187 C43.38512,10.329 42.39512,9.9 41.22912,9.9 C40.06312,9.9 39.07312,10.329 38.25912,11.187 C37.44512,12.045 36.98312,13.068 36.87312,14.256 Z" id="Shape"></path>
                <path d="M55.10416,9.207 C55.43416,9.207 55.59916,9.35 55.59916,9.636 C55.59916,9.922 55.45616,10.087 55.17016,10.131 C53.87216,10.307 52.88216,10.901 52.20016,11.913 C51.56216,12.815 51.24316,13.948 51.24316,15.312 L51.24316,19.734 C51.24316,20.042 51.08916,20.196 50.78116,20.196 C50.47316,20.196 50.31916,20.042 50.31916,19.734 L50.31916,9.669 C50.31916,9.361 50.47316,9.207 50.78116,9.207 C51.08916,9.207 51.24316,9.361 51.24316,9.669 L51.24316,11.715 C51.66116,11.011 52.20016,10.428 52.86016,9.966 C53.60816,9.46 54.35616,9.207 55.10416,9.207 Z" id="Path"></path>
                <path d="M63.1052,8.976 C64.6232,8.976 65.8937,9.548 66.9167,10.692 C67.9397,11.836 68.4512,13.178 68.4512,14.718 C68.4512,15.026 68.2862,15.18 67.9562,15.18 L58.7492,15.18 C58.8592,16.368 59.3212,17.391 60.1352,18.249 C60.9492,19.107 61.9392,19.536 63.1052,19.536 C64.7112,19.536 65.9762,18.887 66.9002,17.589 C67.0102,17.435 67.1422,17.358 67.2962,17.358 C67.6042,17.358 67.7582,17.512 67.7582,17.82 C67.7582,17.908 67.7362,17.985 67.6922,18.051 C66.7682,19.657 65.2392,20.46 63.1052,20.46 C61.6092,20.46 60.3497,19.888 59.3267,18.744 C58.3037,17.6 57.7922,16.258 57.7922,14.718 C57.7922,13.178 58.2982,11.836 59.3102,10.692 C60.3222,9.548 61.5872,8.976 63.1052,8.976 Z M58.7492,14.256 L67.4612,14.256 C67.3512,13.068 66.8892,12.045 66.0752,11.187 C65.2612,10.329 64.2712,9.9 63.1052,9.9 C61.9392,9.9 60.9492,10.329 60.1352,11.187 C59.3212,12.045 58.8592,13.068 58.7492,14.256 Z" id="Shape"></path>
                <path d="M80.57724,9.273 C80.88524,9.273 81.03924,9.427 81.03924,9.735 L81.03924,19.833 C81.03924,20.141 80.88524,20.295 80.57724,20.295 C80.26924,20.295 80.11524,20.141 80.11524,19.833 L80.11524,17.919 C79.25724,19.657 77.98124,20.526 76.28724,20.526 C74.98924,20.526 73.94424,20.02 73.15224,19.008 C72.40424,18.084 72.03024,16.962 72.03024,15.642 L72.03024,9.735 C72.03024,9.427 72.18424,9.273 72.49224,9.273 C72.80024,9.273 72.95424,9.427 72.95424,9.735 L72.95424,15.642 C72.95424,16.72 73.22924,17.622 73.77924,18.348 C74.39524,19.184 75.23124,19.602 76.28724,19.602 C78.83924,19.602 80.11524,17.567 80.11524,13.497 L80.11524,9.735 C80.11524,9.427 80.26924,9.273 80.57724,9.273 Z" id="Path"></path>
                <path d="M97.81828,9.009 C99.11628,9.009 100.15028,9.4875 100.92028,10.4445 C101.69028,11.4015 102.07528,12.54 102.07528,13.86 L102.07528,19.767 C102.07528,20.075 101.92128,20.229 101.61328,20.229 C101.30528,20.229 101.15128,20.075 101.15128,19.767 L101.15128,13.86 C101.15128,12.782 100.86528,11.88 100.29328,11.154 C99.69928,10.34 98.87428,9.933 97.81828,9.933 C96.54228,9.933 95.55228,10.516 94.84828,11.682 C94.27628,12.672 93.99028,13.849 93.99028,15.213 L93.99028,19.767 C93.99028,20.075 93.83628,20.229 93.52828,20.229 C93.22028,20.229 93.06628,20.075 93.06628,19.767 L93.06628,13.86 C93.06628,12.782 92.78028,11.88 92.20828,11.154 C91.59228,10.34 90.76728,9.933 89.73328,9.933 C88.39128,9.933 87.37928,10.417 86.69728,11.385 C86.10328,12.287 85.82828,13.519 85.87228,15.081 C85.87228,15.235 85.87228,15.312 85.87228,15.312 L85.87228,19.767 C85.87228,20.075 85.71828,20.229 85.41028,20.229 C85.10228,20.229 84.94828,20.075 84.94828,19.767 L84.94828,9.669 C84.94828,9.361 85.10228,9.207 85.41028,9.207 C85.71828,9.207 85.87228,9.361 85.87228,9.669 L85.87228,11.352 C86.75228,9.79 88.03928,9.009 89.73328,9.009 C91.69128,9.009 93.00028,9.988 93.66028,11.946 C94.51828,9.988 95.90428,9.009 97.81828,9.009 Z" id="Path"></path>
            </g>
            <path d="M116.849339,66.5878367 L87.4745742,18.4468889 L57.969672,66.5881497 L87.4742423,86.0939322 L116.849339,66.5878367 Z M87.472,20.363 L115.494,66.286 L87.472,84.894 L59.326,66.286 L87.472,20.363 Z" id="Path" fill="#10162F" fill-rule="nonzero"></path>
            <polygon id="Path-2" fill="#10162F" fill-rule="nonzero" transform="translate(87.410156, 57.057310) rotate(-180.000000) translate(-87.410156, -57.057310) " points="115.895708 47.0206884 116.448042 47.8543116 87.4101562 67.0939319 58.3722708 47.8543116 58.9246042 47.0206884 87.41 65.894"></polygon>
            <path d="M87.4195344,117.430514 L117.842754,72.6582193 L87.404,90.663 L55.5946729,72.6874157 L87.4195344,117.430514 Z M87.4,115.678 L59.013,75.767 L87.415874,91.8187586 L114.501,75.796 L87.4,115.678 Z" id="Path-3" fill="#10162F" fill-rule="nonzero"></path>
            <path d="M86,7 C129.630495,7 165,42.3695048 165,86 C165,129.630495 129.630495,165 86,165 C42.3695048,165 7,129.630495 7,86 C7,42.3695048 42.3695048,7 86,7 Z M86,8 C42.9217895,8 8,42.9217895 8,86 C8,129.07821 42.9217895,164 86,164 C129.07821,164 164,129.07821 164,86 C164,42.9217895 129.07821,8 86,8 Z" id="Oval" fill="#10162F" fill-rule="nonzero"></path>
        </g>
        <path d="M640,0 L640,272 L0,272 L0,0 L640,0 Z M639,1 L1,1 L1,271 L639,271 L639,1 Z" id="Rectangle" fill="#10162F" fill-rule="nonzero"></path>
        <g id="Group-3-Copy" transform="translate(380.000000, 50.000000)">
            <circle id="Oval-Copy" fill="#FFD300" cx="86" cy="86" r="86"></circle>
            <path d="M86,0 C133.496488,0 172,38.5035115 172,86 C172,133.496488 133.496488,172 86,172 C38.5035115,172 0,133.496488 0,86 C0,38.5035115 38.5035115,0 86,0 Z M86,1 C39.0557963,1 1,39.0557963 1,86 C1,132.944204 39.0557963,171 86,171 C132.944204,171 171,132.944204 171,86 C171,39.0557963 132.944204,1 86,1 Z" id="Oval-Copy" fill="#10162F" fill-rule="nonzero"></path>
            <g id="Group" transform="translate(13.000000, 13.000000)" fill="#10162F">
                <rect id="Rectangle" x="69" y="0" width="8" height="5"></rect>
                <polygon id="Rectangle" transform="translate(83.812923, 3.307969) rotate(9.000000) translate(-83.812923, -3.307969) " points="79.8418793 0.826066372 87.7839669 0.826066372 87.7839669 5.78987113 79.8418793 5.78987113"></polygon>
                <polygon id="Rectangle" transform="translate(94.320368, 5.766806) rotate(18.000000) translate(-94.320368, -5.766806) " points="90.349324 3.28490319 98.2914117 3.28490319 98.2914117 8.24870795 90.349324 8.24870795"></polygon>
                <polygon id="Rectangle" transform="translate(104.329330, 9.800780) rotate(26.000000) translate(-104.329330, -9.800780) " points="100.358286 7.31887741 108.300374 7.31887741 108.300374 12.2826822 100.358286 12.2826822"></polygon>
                <polygon id="Rectangle" transform="translate(113.605208, 15.315338) rotate(35.000000) translate(-113.605208, -15.315338) " points="109.634165 12.8334361 117.576252 12.8334361 117.576252 17.7972408 109.634165 17.7972408"></polygon>
                <polygon id="Rectangle" transform="translate(121.930584, 22.181225) rotate(44.000000) translate(-121.930584, -22.181225) " points="117.95954 19.6993226 125.901628 19.6993226 125.901628 24.6631274 117.95954 24.6631274"></polygon>
                <polygon id="Rectangle" transform="translate(129.110317, 30.237509) rotate(53.000000) translate(-129.110317, -30.237509) " points="125.139273 27.7556065 133.08136 27.7556065 133.08136 32.7194113 125.139273 32.7194113"></polygon>
                <polygon id="Rectangle" transform="translate(134.976120, 39.295358) rotate(61.000000) translate(-134.976120, -39.295358) " points="131.005076 36.8134552 138.947164 36.8134552 138.947164 41.77726 131.005076 41.77726"></polygon>
                <polygon id="Rectangle" transform="translate(139.390505, 49.142463) rotate(70.000000) translate(-139.390505, -49.142463) " points="135.419461 46.6605605 143.361549 46.6605605 143.361549 51.6243653 135.419461 51.6243653"></polygon>
                <polygon id="Rectangle" transform="translate(142.250001, 59.548017) rotate(79.000000) translate(-142.250001, -59.548017) " points="138.278957 57.0661146 146.221045 57.0661146 146.221045 62.0299193 138.278957 62.0299193"></polygon>
                <polygon id="Rectangle" transform="translate(143.487585, 70.268122) rotate(88.000000) translate(-143.487585, -70.268122) " points="139.516541 67.78622 147.458629 67.78622 147.458629 72.7500247 139.516541 72.7500247"></polygon>
                <polygon id="Rectangle" transform="translate(143.074248, 81.051509) rotate(97.000000) translate(-143.074248, -81.051509) " points="139.103205 78.5696066 147.045292 78.5696066 147.045292 83.5334114 139.103205 83.5334114"></polygon>
                <polygon id="Rectangle" transform="translate(141.019680, 91.645423) rotate(105.000000) translate(-141.019680, -91.645423) " points="137.048636 89.163521 144.990724 89.163521 144.990724 94.1273257 137.048636 94.1273257"></polygon>
                <polygon id="Rectangle" transform="translate(137.372036, 101.801553) rotate(114.000000) translate(-137.372036, -101.801553) " points="133.400993 99.3196507 141.34308 99.3196507 141.34308 104.283455 133.400993 104.283455"></polygon>
                <polygon id="Rectangle" transform="translate(132.216816, 111.281847) rotate(123.000000) translate(-132.216816, -111.281847) " points="128.245772 108.799945 136.18786 108.799945 136.18786 113.76375 128.245772 113.76375"></polygon>
                <polygon id="Rectangle" transform="translate(125.674852, 119.864096) rotate(132.000000) translate(-125.674852, -119.864096) " points="121.703809 117.382193 129.645896 117.382193 129.645896 122.345998 121.703809 122.345998"></polygon>
                <polygon id="Rectangle" transform="translate(117.899484, 127.347137) rotate(140.000000) translate(-117.899484, -127.347137) " points="113.92844 124.865235 121.870528 124.865235 121.870528 129.82904 113.92844 129.82904"></polygon>
                <polygon id="Rectangle" transform="translate(109.072958, 133.555577) rotate(149.000000) translate(-109.072958, -133.555577) " points="105.101914 131.073674 113.044002 131.073674 113.044002 136.037479 105.101914 136.037479"></polygon>
                <polygon id="Rectangle" transform="translate(99.402162, 138.343893) rotate(158.000000) translate(-99.402162, -138.343893) " points="95.431118 135.861991 103.373206 135.861991 103.373206 140.825796 95.431118 140.825796"></polygon>
                <polygon id="Rectangle" transform="translate(89.113770, 141.599852) rotate(167.000000) translate(-89.113770, -141.599852) " points="85.1427263 139.11795 93.0848139 139.11795 93.0848139 144.081755 85.1427263 144.081755"></polygon>
                <polygon id="Rectangle" transform="translate(78.448934, 143.247137) rotate(176.000000) translate(-78.448934, -143.247137) " points="74.4778904 140.765235 82.419978 140.765235 82.419978 145.72904 74.4778904 145.72904"></polygon>
                <polygon id="Rectangle" transform="translate(67.657629, 143.247137) rotate(184.000000) translate(-67.657629, -143.247137) " points="63.6865849 140.765235 71.6286725 140.765235 71.6286725 145.72904 63.6865849 145.72904"></polygon>
                <polygon id="Rectangle" transform="translate(56.992793, 141.599852) rotate(193.000000) translate(-56.992793, -141.599852) " points="53.0217489 139.11795 60.9638365 139.11795 60.9638365 144.081755 53.0217489 144.081755"></polygon>
                <polygon id="Rectangle" transform="translate(46.704401, 138.343893) rotate(202.000000) translate(-46.704401, -138.343893) " points="42.7333572 135.861991 50.6754448 135.861991 50.6754448 140.825796 42.7333572 140.825796"></polygon>
                <polygon id="Rectangle" transform="translate(37.033605, 133.555577) rotate(211.000000) translate(-37.033605, -133.555577) " points="33.0625609 131.073674 41.0046485 131.073674 41.0046485 136.037479 33.0625609 136.037479"></polygon>
                <polygon id="Rectangle" transform="translate(28.207079, 127.347137) rotate(220.000000) translate(-28.207079, -127.347137) " points="24.2360353 124.865235 32.1781229 124.865235 32.1781229 129.82904 24.2360353 129.82904"></polygon>
                <polygon id="Rectangle" transform="translate(20.431711, 119.864096) rotate(228.000000) translate(-20.431711, -119.864096) " points="16.4606667 117.382193 24.4027543 117.382193 24.4027543 122.345998 16.4606667 122.345998"></polygon>
                <polygon id="Rectangle" transform="translate(13.889747, 111.281847) rotate(237.000000) translate(-13.889747, -111.281847) " points="9.91870311 108.799945 17.8607907 108.799945 17.8607907 113.76375 9.91870311 113.76375"></polygon>
                <polygon id="Rectangle" transform="translate(8.734526, 101.801553) rotate(246.000000) translate(-8.734526, -101.801553) " points="4.76348261 99.3196507 12.7055702 99.3196507 12.7055702 104.283455 4.76348261 104.283455"></polygon>
                <polygon id="Rectangle" transform="translate(5.086883, 91.645423) rotate(255.000000) translate(-5.086883, -91.645423) " points="1.11583922 89.163521 9.05792682 89.163521 9.05792682 94.1273257 1.11583922 94.1273257"></polygon>
                <polygon id="Rectangle" transform="translate(3.032314, 81.051509) rotate(263.000000) translate(-3.032314, -81.051509) " points="-0.938729404 78.5696066 7.0033582 78.5696066 7.0033582 83.5334114 -0.938729404 83.5334114"></polygon>
                <polygon id="Rectangle" transform="translate(2.618978, 70.268122) rotate(272.000000) translate(-2.618978, -70.268122) " points="-1.3520659 67.78622 6.5900217 67.78622 6.5900217 72.7500247 -1.3520659 72.7500247"></polygon>
                <polygon id="Rectangle" transform="translate(3.856562, 59.548017) rotate(281.000000) translate(-3.856562, -59.548017) " points="-0.114482027 57.0661146 7.82760558 57.0661146 7.82760558 62.0299193 -0.114482027 62.0299193"></polygon>
                <polygon id="Rectangle" transform="translate(6.716058, 49.142463) rotate(290.000000) translate(-6.716058, -49.142463) " points="2.74501431 46.6605605 10.6871019 46.6605605 10.6871019 51.6243653 2.74501431 51.6243653"></polygon>
                <polygon id="Rectangle" transform="translate(11.130443, 39.295358) rotate(299.000000) translate(-11.130443, -39.295358) " points="7.15939894 36.8134552 15.1014865 36.8134552 15.1014865 41.77726 7.15939894 41.77726"></polygon>
                <polygon id="Rectangle" transform="translate(16.996246, 30.237509) rotate(307.000000) translate(-16.996246, -30.237509) " points="13.0252024 27.7556065 20.96729 27.7556065 20.96729 32.7194113 13.0252024 32.7194113"></polygon>
                <polygon id="Rectangle" transform="translate(24.175979, 22.181225) rotate(316.000000) translate(-24.175979, -22.181225) " points="20.2049353 19.6993226 28.1470229 19.6993226 28.1470229 24.6631274 20.2049353 24.6631274"></polygon>
                <polygon id="Rectangle" transform="translate(32.501355, 15.315338) rotate(325.000000) translate(-32.501355, -15.315338) " points="28.5303107 12.8334361 36.4723983 12.8334361 36.4723983 17.7972408 28.5303107 17.7972408"></polygon>
                <polygon id="Rectangle" transform="translate(41.777233, 9.800780) rotate(334.000000) translate(-41.777233, -9.800780) " points="37.8061889 7.31887741 45.7482765 7.31887741 45.7482765 12.2826822 37.8061889 12.2826822"></polygon>
                <polygon id="Rectangle" transform="translate(51.786195, 5.766806) rotate(342.000000) translate(-51.786195, -5.766806) " points="47.8151512 3.28490319 55.7572388 3.28490319 55.7572388 8.24870795 47.8151512 8.24870795"></polygon>
                <polygon id="Rectangle" transform="translate(62.293640, 3.307969) rotate(351.000000) translate(-62.293640, -3.307969) " points="58.322596 0.826066372 66.2646836 0.826066372 66.2646836 5.78987113 58.322596 5.78987113"></polygon>
            </g>
            <path d="M85.5,22 C121.122366,22 150,50.8776336 150,86.5 C150,122.122366 121.122366,151 85.5,151 C49.8776336,151 21,122.122366 21,86.5 C21,50.8776336 49.8776336,22 85.5,22 Z M85.5,23 C50.4299184,23 22,51.4299184 22,86.5 C22,121.570082 50.4299184,150 85.5,150 C120.570082,150 149,121.570082 149,86.5 C149,51.4299184 120.570082,23 85.5,23 Z" id="Oval" fill="#10162F" fill-rule="nonzero"></path>
            <path d="M85.5,25 C119.465512,25 147,52.5344879 147,86.5 C147,120.465512 119.465512,148 85.5,148 C51.5344879,148 24,120.465512 24,86.5 C24,52.5344879 51.5344879,25 85.5,25 Z M85.5,26 C52.0867726,26 25,53.0867726 25,86.5 C25,119.913227 52.0867726,147 85.5,147 C118.913227,147 146,119.913227 146,86.5 C146,53.0867726 118.913227,26 85.5,26 Z" id="Oval" fill="#10162F" fill-rule="nonzero"></path>
            <path d="M85.5,28 C117.808658,28 144,54.1913421 144,86.5 C144,118.808658 117.808658,145 85.5,145 C53.1913421,145 27,118.808658 27,86.5 C27,54.1913421 53.1913421,28 85.5,28 Z M85.5,29 C53.7436269,29 28,54.7436269 28,86.5 C28,118.256373 53.7436269,144 85.5,144 C117.256373,144 143,118.256373 143,86.5 C143,54.7436269 117.256373,29 85.5,29 Z" id="Oval-Copy-3" fill="#10162F" fill-rule="nonzero"></path>
            <path d="M85.5,31 C116.151804,31 141,55.8481964 141,86.5 C141,117.151804 116.151804,142 85.5,142 C54.8481964,142 30,117.151804 30,86.5 C30,55.8481964 54.8481964,31 85.5,31 Z M85.5,32 C55.4004811,32 31,56.4004811 31,86.5 C31,116.599519 55.4004811,141 85.5,141 C115.599519,141 140,116.599519 140,86.5 C140,56.4004811 115.599519,32 85.5,32 Z" id="Oval-Copy-4" fill="#10162F" fill-rule="nonzero"></path>
            <path d="M85.5,34 C114.494949,34 138,57.5050506 138,86.5 C138,115.494949 114.494949,139 85.5,139 C56.5050506,139 33,115.494949 33,86.5 C33,57.5050506 56.5050506,34 85.5,34 Z M85.5,35 C57.0573354,35 34,58.0573354 34,86.5 C34,114.942665 57.0573354,138 85.5,138 C113.942665,138 137,114.942665 137,86.5 C137,58.0573354 113.942665,35 85.5,35 Z" id="Oval-Copy-5" fill="#10162F" fill-rule="nonzero"></path>
            <path d="M85.5,37 C112.838095,37 135,59.1619049 135,86.5 C135,113.838095 112.838095,136 85.5,136 C58.1619049,136 36,113.838095 36,86.5 C36,59.1619049 58.1619049,37 85.5,37 Z M85.5,38 C58.7141896,38 37,59.7141896 37,86.5 C37,113.28581 58.7141896,135 85.5,135 C112.28581,135 134,113.28581 134,86.5 C134,59.7141896 112.28581,38 85.5,38 Z" id="Oval-Copy-6" fill="#10162F" fill-rule="nonzero"></path>
            <path d="M85.5,37 C112.838095,37 135,59.1619049 135,86.5 C135,113.838095 112.838095,136 85.5,136 C58.1619049,136 36,113.838095 36,86.5 C36,59.1619049 58.1619049,37 85.5,37 Z M85.5,38 C58.7141896,38 37,59.7141896 37,86.5 C37,113.28581 58.7141896,135 85.5,135 C112.28581,135 134,113.28581 134,86.5 C134,59.7141896 112.28581,38 85.5,38 Z" id="Oval-Copy-7" fill="#10162F" fill-rule="nonzero"></path>
            <path d="M85.5,40 C111.181241,40 132,60.8187591 132,86.5 C132,112.181241 111.181241,133 85.5,133 C59.8187591,133 39,112.181241 39,86.5 C39,60.8187591 59.8187591,40 85.5,40 Z M85.5,41 C60.3710439,41 40,61.3710439 40,86.5 C40,111.628956 60.3710439,132 85.5,132 C110.628956,132 131,111.628956 131,86.5 C131,61.3710439 110.628956,41 85.5,41 Z" id="Oval-Copy-8" fill="#10162F" fill-rule="nonzero"></path>
            <path d="M85.5,43 C109.524387,43 129,62.4756134 129,86.5 C129,110.524387 109.524387,130 85.5,130 C61.4756134,130 42,110.524387 42,86.5 C42,62.4756134 61.4756134,43 85.5,43 Z M85.5,44 C62.0278981,44 43,63.0278981 43,86.5 C43,109.972102 62.0278981,129 85.5,129 C108.972102,129 128,109.972102 128,86.5 C128,63.0278981 108.972102,44 85.5,44 Z" id="Oval-Copy-9" fill="#10162F" fill-rule="nonzero"></path>
            <path d="M85.5,46 C107.867532,46 126,64.1324676 126,86.5 C126,108.867532 107.867532,127 85.5,127 C63.1324676,127 45,108.867532 45,86.5 C45,64.1324676 63.1324676,46 85.5,46 Z M85.5,47 C63.6847524,47 46,64.6847524 46,86.5 C46,108.315248 63.6847524,126 85.5,126 C107.315248,126 125,108.315248 125,86.5 C125,64.6847524 107.315248,47 85.5,47 Z" id="Oval-Copy-10" fill="#10162F" fill-rule="nonzero"></path>
            <path d="M85.5,49 C106.210678,49 123,65.7893219 123,86.5 C123,107.210678 106.210678,124 85.5,124 C64.7893219,124 48,107.210678 48,86.5 C48,65.7893219 64.7893219,49 85.5,49 Z M85.5,50 C65.3416066,50 49,66.3416066 49,86.5 C49,106.658393 65.3416066,123 85.5,123 C105.658393,123 122,106.658393 122,86.5 C122,66.3416066 105.658393,50 85.5,50 Z" id="Oval-Copy-11" fill="#10162F" fill-rule="nonzero"></path>
            <path d="M85.5,52 C104.553824,52 120,67.4461761 120,86.5 C120,105.553824 104.553824,121 85.5,121 C66.4461761,121 51,105.553824 51,86.5 C51,67.4461761 66.4461761,52 85.5,52 Z M85.5,53 C66.9984609,53 52,67.9984609 52,86.5 C52,105.001539 66.9984609,120 85.5,120 C104.001539,120 119,105.001539 119,86.5 C119,67.9984609 104.001539,53 85.5,53 Z" id="Oval-Copy-12" fill="#10162F" fill-rule="nonzero"></path>
            <rect id="Rectangle" fill="#FFD300" x="43" y="111" width="88" height="17"></rect>
            <path d="M85.9679299,14.9855219 C125.170431,14.9855219 156.950338,46.7654285 156.950338,85.9679299 C156.950338,125.170431 125.170431,156.950338 85.9679299,156.950338 C46.7654285,156.950338 14.9855219,125.170431 14.9855219,85.9679299 C14.9855219,46.7654285 46.7654285,14.9855219 85.9679299,14.9855219 Z M85.9679299,15.9855219 C47.3177132,15.9855219 15.9855219,47.3177132 15.9855219,85.9679299 C15.9855219,124.618147 47.3177132,155.950338 85.9679299,155.950338 C124.618147,155.950338 155.950338,124.618147 155.950338,85.9679299 C155.950338,47.3177132 124.618147,15.9855219 85.9679299,15.9855219 Z" id="Oval" fill="#10162F" fill-rule="nonzero"></path>
            <path d="M86,7 C129.630495,7 165,42.3695048 165,86 C165,129.630495 129.630495,165 86,165 C42.3695048,165 7,129.630495 7,86 C7,42.3695048 42.3695048,7 86,7 Z M86,8 C42.9217895,8 8,42.9217895 8,86 C8,129.07821 42.9217895,164 86,164 C129.07821,164 164,129.07821 164,86 C164,42.9217895 129.07821,8 86,8 Z" id="Oval-Copy-2" fill="#10162F" fill-rule="nonzero"></path>
            <g id="Group-5" transform="translate(45.000000, 113.000000)" fill="#10162F" fill-rule="nonzero">
                <path d="M10.1716364,5.20007325 L2.54545455,5.20007325 L2.54545455,2.60014145 L12.153697,2.60014145 L12.153697,0.000171617686 L2.52,0.000171617686 C2.19078788,-0.00163490315 1.8646303,0.0636444656 1.55985455,0.192323523 C1.25507879,0.321020147 0.977624242,0.510586796 0.743781818,0.7502197 C0.509769697,0.989852604 0.323612121,1.27486134 0.196,1.58894365 C0.0683878788,1.90304352 0.0016969697,2.24008603 0,2.58081763 L0,5.21588365 C0.00135757576,5.55691389 0.0675393939,5.89434288 0.194981818,6.20882922 C0.322424242,6.52333314 0.508412121,6.80874592 0.742424242,7.04874773 C0.976606061,7.28876711 1.25406061,7.47864997 1.55900606,7.6075574 C1.86395152,7.73646483 2.19061818,7.80186717 2.52,7.80000505 L10.1563636,7.80000505 L10.1563636,10.3999369 L0.181575758,10.3999369 L0.181575758,12.9999074 L10.1716364,12.9999074 C10.5008485,13.0017308 10.8270061,12.9364338 11.1317818,12.8077548 C11.4365576,12.6790582 11.7140121,12.4894915 11.9478545,12.2498586 C12.1818667,12.0102257 12.3680242,11.7252345 12.4956364,11.4111347 C12.6232485,11.0970348 12.6899394,10.7599923 12.6916364,10.4192607 L12.6916364,7.78419466 C12.6902788,7.44316441 12.624097,7.10575299 12.4966545,6.79124908 C12.3692121,6.47674517 12.1832242,6.19133238 11.9492121,5.95133057 C11.7150303,5.71132876 11.4375758,5.5214459 11.1326303,5.39253847 C10.8276848,5.26363104 10.5010182,5.1982287 10.1716364,5.20007325 Z" id="Path"></path>
                <path d="M24.9454545,8.87115258e-05 L17.2904242,8.87115258e-05 C16.960703,-0.00260109403 16.633697,0.0619931576 16.3280727,0.190268171 C16.0226182,0.318543185 15.7444848,0.50795173 15.5097939,0.747690037 C15.2749333,0.987410776 15.0882667,1.27271816 14.9603152,1.58727477 C14.8321939,1.90183138 14.7653333,2.23945361 14.7636364,2.58078249 L14.7636364,10.4192255 C14.7653333,10.7605544 14.8321939,11.0981767 14.9603152,11.4127333 C15.0882667,11.7272899 15.2749333,12.0125973 15.5097939,12.252318 C15.7444848,12.4920563 16.0226182,12.6814649 16.3280727,12.8097399 C16.633697,12.9380149 16.960703,13.0026091 17.2904242,12.9999193 L24.9454545,12.9999193 C25.2746667,13.0016781 25.6008242,12.9363987 25.9056,12.8077196 C26.2103758,12.679023 26.4878303,12.4894564 26.7216727,12.2498235 C26.9556848,12.0101906 27.1418424,11.7251818 27.2694545,11.4110995 C27.3970667,11.0969997 27.4637576,10.7599571 27.4654545,10.4192255 L27.4654545,2.58078249 C27.4637576,2.24005089 27.3970667,1.90300838 27.2694545,1.58890851 C27.1418424,1.27482621 26.9556848,0.989817469 26.7216727,0.750184566 C26.4878303,0.510551662 26.2103758,0.320985013 25.9056,0.192288389 C25.6008242,0.0636093314 25.2746667,-0.00167003737 24.9454545,8.87115258e-05 Z M24.9267879,10.3999017 L17.3090909,10.3999017 L17.3090909,2.60010631 L24.9233939,2.60010631 L24.9267879,10.3999017 Z" id="Shape"></path>
                <path d="M51.7575758,0.000192075951 L44.2909091,0.000192075951 C43.961697,-0.00165247026 43.6355394,0.0636268985 43.3307636,0.192305956 C43.0259879,0.32100258 42.7485333,0.510569229 42.5146909,0.750202133 C42.2806788,0.989835036 42.0945212,1.27484378 41.9669091,1.58892608 C41.839297,1.90302595 41.7726061,2.24006846 41.7709091,2.58080006 L41.7709091,12.9998511 L44.3163636,12.9998511 L44.3163636,8.72928744 L51.7490909,8.72928744 L51.7490909,12.9998511 L54.2945455,12.9998511 L54.2945455,2.58080006 C54.2928485,2.23857525 54.2256485,1.90009224 54.0970182,1.58483294 C53.9682182,1.26959121 53.780703,0.983809519 53.5448242,0.743930676 C53.3091152,0.5040694 53.0297939,0.31487166 52.7229818,0.187229062 C52.4161697,0.059586464 52.0881455,-0.00397132836 51.7575758,0.000192075951 Z M51.7389091,6.12935563 L44.3061818,6.12935563 L44.3061818,2.60012388 L51.7389091,2.60012388 L51.7389091,6.12935563 Z" id="Shape"></path>
                <path d="M81.48,0.000171617686 L74.0133333,0.000171617686 C73.6841212,-0.00163490315 73.3579636,0.0636444656 73.0531879,0.192323523 C72.7484121,0.321020147 72.4711273,0.510586796 72.2371152,0.7502197 C72.003103,0.989852604 71.8169455,1.27486134 71.6893333,1.58894365 C71.5617212,1.90304352 71.4950303,2.24008603 71.4933333,2.58081763 L71.4933333,12.9998687 L74.0387879,12.9998687 L74.0387879,8.729305 L81.4545455,8.729305 L81.4545455,12.9998687 L84,12.9998687 L84,2.58081763 C83.998303,2.24008603 83.9316121,1.90304352 83.804,1.58894365 C83.6763879,1.27486134 83.4902303,0.989852604 83.2562182,0.7502197 C83.0222061,0.510586796 82.7449212,0.321020147 82.4401455,0.192323523 C82.1353697,0.0636444656 81.8092121,-0.00163490315 81.48,0.000171617686 Z M81.4545455,6.1293732 L74.0218182,6.1293732 L74.0218182,2.60014145 L81.4545455,2.60014145 L81.4545455,6.1293732 Z" id="Shape"></path>
                <path d="M66.6909091,10.3999193 L65.6727273,10.3999193 L62.0327273,1.0893527 C61.908,0.768138149 61.6933333,0.492844019 61.4163879,0.298797757 C61.1394424,0.104733928 60.8127758,0.000754223368 60.478303,0.000169555104 L58.2196364,0.000169555104 C58.0000485,-0.000967353096 57.782497,0.042651773 57.5793697,0.128537358 C57.3760727,0.21444051 57.1912727,0.340923679 57.0351515,0.500784351 C56.8792,0.66066259 56.7551515,0.850756252 56.6701333,1.06026157 C56.5851152,1.26974932 56.5408242,1.49453801 56.5396364,1.72176854 L56.5396364,12.9998511 L59.0850909,12.9998511 L59.0850909,2.60012388 L60.1032727,2.60012388 L63.7415758,11.9106905 C63.8683394,12.2312902 64.084703,12.50546 64.3628364,12.6982063 C64.6408,12.8909702 64.9681455,12.9935269 65.3027879,12.9928243 L67.5614545,12.9928243 C67.7810424,12.9939837 67.9985939,12.9503821 68.2017212,12.864479 C68.4050182,12.7785934 68.5898182,12.6520926 68.7459394,12.492232 C68.9018909,12.3323713 69.0259394,12.1422601 69.1109576,11.9327723 C69.1959758,11.723267 69.2402667,11.4984959 69.2414545,11.2712478 L69.2414545,0.000169555104 L66.6909091,0.000169555104 L66.6909091,10.3999193 Z" id="Path"></path>
                <path d="M32.2593939,0.000174508844 L29.7139394,0.000174508844 L29.7139394,10.4192255 C29.7156364,10.7607125 29.7826667,11.0984753 29.9107879,11.4131373 C30.0389091,11.7278169 30.2257455,12.0131945 30.4606061,12.2529504 C30.6954667,12.4927063 30.9739394,12.6820797 31.2795636,12.8102493 C31.5853576,12.9384189 31.9125333,13.0028375 32.2424242,12.9999339 L39.8787879,12.9999339 L39.8787879,10.3999017 L32.2593939,10.3999017 L32.2593939,0.000174508844 Z" id="Path"></path>
            </g>
            <path d="M57.003797,58.6357422 L107.333623,58.6357422 C107.623805,58.6357422 107.899676,58.5096928 108.089621,58.2903164 L115.886533,49.2853063 C116.248045,48.8677803 116.202636,48.2362457 115.78511,47.8747343 C115.601953,47.7161499 115.367453,47.6294502 115.125186,47.6307463 L64.7619311,47.9001861 C64.4781293,47.9017044 64.2083398,48.0237412 64.0198093,48.2358781 L56.2563253,56.9714485 C55.889446,57.3842657 55.9266861,58.0163346 56.3395033,58.3832139 C56.5225455,58.5458873 56.7589152,58.6357422 57.003797,58.6357422 Z" id="Path-7" fill="#FFD300"></path>
            <path d="M57.003797,98.0167879 L107.333623,98.0167879 C107.623805,98.0167879 107.899676,97.8907385 108.089621,97.6713621 L115.886533,88.666352 C116.248045,88.2488259 116.202636,87.6172914 115.78511,87.25578 C115.601953,87.0971956 115.367453,87.0104959 115.125186,87.011792 L64.7619311,87.2812318 C64.4781293,87.2827501 64.2083398,87.4047869 64.0198093,87.6169238 L56.2563253,96.3524942 C55.889446,96.7653114 55.9266861,97.3973803 56.3395033,97.7642595 C56.5225455,97.926933 56.7589152,98.0167879 57.003797,98.0167879 Z" id="Path-7-Copy" fill="#FFD300"></path>
            <path d="M57.003797,78.0167879 L107.333623,78.0167879 C107.623805,78.0167879 107.899676,77.8907385 108.089621,77.6713621 L115.886533,68.666352 C116.248045,68.2488259 116.202636,67.6172914 115.78511,67.25578 C115.601953,67.0971956 115.367453,67.0104959 115.125186,67.011792 L64.7619311,67.2812318 C64.4781293,67.2827501 64.2083398,67.4047869 64.0198093,67.6169238 L56.2563253,76.3524942 C55.889446,76.7653114 55.9266861,77.3973803 56.3395033,77.7642595 C56.5225455,77.926933 56.7589152,78.0167879 57.003797,78.0167879 Z" id="Path-7-Copy-2" fill="#FFD300" transform="translate(86.053281, 72.508394) scale(1, -1) translate(-86.053281, -72.508394) "></path>
            <path d="M115.122511,47.130732 L64.7592562,47.4001932 C64.3335534,47.4024707 63.9288692,47.5855259 63.6460735,47.9037312 L55.8825895,56.6393017 C55.3322706,57.2585275 55.3881306,58.2066308 56.0073564,58.7569497 C56.2819198,59.0009599 56.6364743,59.1357422 57.003797,59.1357422 L107.333623,59.1357422 C107.768895,59.1357422 108.182702,58.9466681 108.46762,58.6176036 L116.264532,49.6125934 C116.806799,48.9863044 116.738686,48.0390025 116.112397,47.4967354 C115.837662,47.2588588 115.485912,47.1288093 115.122511,47.130732 Z M64.7646061,48.4001789 L115.127861,48.130732 C115.248995,48.1300911 115.366245,48.1734409 115.457823,48.2527331 C115.666586,48.4334888 115.68929,48.7492561 115.508534,48.9580191 L107.711622,57.9630293 C107.61665,58.0727175 107.478714,58.1357422 107.333623,58.1357422 L57.0037916,58.1357422 C56.8813561,58.1357422 56.7631713,58.0908147 56.6716501,58.009478 C56.4652415,57.8260384 56.4466215,57.5100039 56.6300612,57.3035953 L64.3935452,48.5680249 C64.4878104,48.4619565 64.6227051,48.4009381 64.7646061,48.4001789 Z" id="Path-7" fill="#10162F" fill-rule="nonzero"></path>
            <path d="M115.122511,86.5117777 L64.7592562,86.7812389 C64.3335534,86.7835164 63.9288692,86.9665716 63.6460735,87.2847769 L55.8825895,96.0203473 C55.3322706,96.6395731 55.3881306,97.5876765 56.0073564,98.1379954 C56.2819198,98.3820056 56.6364743,98.5167879 57.003797,98.5167879 L107.333623,98.5167879 C107.768895,98.5167879 108.182702,98.3277138 108.46762,97.9986493 L116.264532,88.9936391 C116.806799,88.3673501 116.738686,87.4200482 116.112397,86.8777811 C115.837662,86.6399045 115.485912,86.509855 115.122511,86.5117777 Z M64.7646061,87.7812246 L115.127861,87.5117777 C115.248995,87.5111368 115.366245,87.5544866 115.457823,87.6337788 C115.666586,87.8145345 115.68929,88.1303018 115.508534,88.3390648 L107.711622,97.344075 C107.61665,97.4537632 107.478714,97.5167879 107.333623,97.5167879 L57.0037916,97.5167879 C56.8813561,97.5167879 56.7631713,97.4718604 56.6716501,97.3905237 C56.4652415,97.2070841 56.4466215,96.8910496 56.6300612,96.684641 L64.3935452,87.9490706 C64.4878104,87.8430022 64.6227051,87.7819838 64.7646061,87.7812246 Z" id="Path-7-Copy" fill="#10162F" fill-rule="nonzero"></path>
            <path d="M115.122511,66.5117777 L64.7592562,66.7812389 C64.3335534,66.7835164 63.9288692,66.9665716 63.6460735,67.2847769 L55.8825895,76.0203473 C55.3322706,76.6395731 55.3881306,77.5876765 56.0073564,78.1379954 C56.2819198,78.3820056 56.6364743,78.5167879 57.003797,78.5167879 L107.333623,78.5167879 C107.768895,78.5167879 108.182702,78.3277138 108.46762,77.9986493 L116.264532,68.9936391 C116.806799,68.3673501 116.738686,67.4200482 116.112397,66.8777811 C115.837662,66.6399045 115.485912,66.509855 115.122511,66.5117777 Z M64.7646061,67.7812246 L115.127861,67.5117777 C115.248995,67.5111368 115.366245,67.5544866 115.457823,67.6337788 C115.666586,67.8145345 115.68929,68.1303018 115.508534,68.3390648 L107.711622,77.344075 C107.61665,77.4537632 107.478714,77.5167879 107.333623,77.5167879 L57.0037916,77.5167879 C56.8813561,77.5167879 56.7631713,77.4718604 56.6716501,77.3905237 C56.4652415,77.2070841 56.4466215,76.8910496 56.6300612,76.684641 L64.3935452,67.9490706 C64.4878104,67.8430022 64.6227051,67.7819838 64.7646061,67.7812246 Z" id="Path-7-Copy-2" fill="#10162F" fill-rule="nonzero" transform="translate(86.067170, 72.514283) scale(1, -1) translate(-86.067170, -72.514283) "></path>
        </g>
        <g id="Group-3" transform="translate(230.000000, 50.000000)">
            <circle id="Oval-Copy" fill="#10162F" cx="86" cy="89" r="86"></circle>
            <circle id="Oval-Copy" fill="#FFD300" cx="90" cy="86" r="86"></circle>
            <path d="M90,0 C137.496488,0 176,38.5035115 176,86 C176,133.496488 137.496488,172 90,172 C42.5035115,172 4,133.496488 4,86 C4,38.5035115 42.5035115,0 90,0 Z M90,1 C43.0557963,1 5,39.0557963 5,86 C5,132.944204 43.0557963,171 90,171 C136.944204,171 175,132.944204 175,86 C175,39.0557963 136.944204,1 90,1 Z" id="Oval-Copy" fill="#10162F" fill-rule="nonzero"></path>
            <g id="Group" transform="translate(17.000000, 13.000000)" fill="#10162F">
                <rect id="Rectangle" x="69" y="0" width="8" height="5"></rect>
                <polygon id="Rectangle" transform="translate(83.812923, 3.307969) rotate(9.000000) translate(-83.812923, -3.307969) " points="79.8418793 0.826066372 87.7839669 0.826066372 87.7839669 5.78987113 79.8418793 5.78987113"></polygon>
                <polygon id="Rectangle" transform="translate(94.320368, 5.766806) rotate(18.000000) translate(-94.320368, -5.766806) " points="90.349324 3.28490319 98.2914117 3.28490319 98.2914117 8.24870795 90.349324 8.24870795"></polygon>
                <polygon id="Rectangle" transform="translate(104.329330, 9.800780) rotate(26.000000) translate(-104.329330, -9.800780) " points="100.358286 7.31887741 108.300374 7.31887741 108.300374 12.2826822 100.358286 12.2826822"></polygon>
                <polygon id="Rectangle" transform="translate(113.605208, 15.315338) rotate(35.000000) translate(-113.605208, -15.315338) " points="109.634165 12.8334361 117.576252 12.8334361 117.576252 17.7972408 109.634165 17.7972408"></polygon>
                <polygon id="Rectangle" transform="translate(121.930584, 22.181225) rotate(44.000000) translate(-121.930584, -22.181225) " points="117.95954 19.6993226 125.901628 19.6993226 125.901628 24.6631274 117.95954 24.6631274"></polygon>
                <polygon id="Rectangle" transform="translate(129.110317, 30.237509) rotate(53.000000) translate(-129.110317, -30.237509) " points="125.139273 27.7556065 133.08136 27.7556065 133.08136 32.7194113 125.139273 32.7194113"></polygon>
                <polygon id="Rectangle" transform="translate(134.976120, 39.295358) rotate(61.000000) translate(-134.976120, -39.295358) " points="131.005076 36.8134552 138.947164 36.8134552 138.947164 41.77726 131.005076 41.77726"></polygon>
                <polygon id="Rectangle" transform="translate(139.390505, 49.142463) rotate(70.000000) translate(-139.390505, -49.142463) " points="135.419461 46.6605605 143.361549 46.6605605 143.361549 51.6243653 135.419461 51.6243653"></polygon>
                <polygon id="Rectangle" transform="translate(142.250001, 59.548017) rotate(79.000000) translate(-142.250001, -59.548017) " points="138.278957 57.0661146 146.221045 57.0661146 146.221045 62.0299193 138.278957 62.0299193"></polygon>
                <polygon id="Rectangle" transform="translate(143.487585, 70.268122) rotate(88.000000) translate(-143.487585, -70.268122) " points="139.516541 67.78622 147.458629 67.78622 147.458629 72.7500247 139.516541 72.7500247"></polygon>
                <polygon id="Rectangle" transform="translate(143.074248, 81.051509) rotate(97.000000) translate(-143.074248, -81.051509) " points="139.103205 78.5696066 147.045292 78.5696066 147.045292 83.5334114 139.103205 83.5334114"></polygon>
                <polygon id="Rectangle" transform="translate(141.019680, 91.645423) rotate(105.000000) translate(-141.019680, -91.645423) " points="137.048636 89.163521 144.990724 89.163521 144.990724 94.1273257 137.048636 94.1273257"></polygon>
                <polygon id="Rectangle" transform="translate(137.372036, 101.801553) rotate(114.000000) translate(-137.372036, -101.801553) " points="133.400993 99.3196507 141.34308 99.3196507 141.34308 104.283455 133.400993 104.283455"></polygon>
                <polygon id="Rectangle" transform="translate(132.216816, 111.281847) rotate(123.000000) translate(-132.216816, -111.281847) " points="128.245772 108.799945 136.18786 108.799945 136.18786 113.76375 128.245772 113.76375"></polygon>
                <polygon id="Rectangle" transform="translate(125.674852, 119.864096) rotate(132.000000) translate(-125.674852, -119.864096) " points="121.703809 117.382193 129.645896 117.382193 129.645896 122.345998 121.703809 122.345998"></polygon>
                <polygon id="Rectangle" transform="translate(117.899484, 127.347137) rotate(140.000000) translate(-117.899484, -127.347137) " points="113.92844 124.865235 121.870528 124.865235 121.870528 129.82904 113.92844 129.82904"></polygon>
                <polygon id="Rectangle" transform="translate(109.072958, 133.555577) rotate(149.000000) translate(-109.072958, -133.555577) " points="105.101914 131.073674 113.044002 131.073674 113.044002 136.037479 105.101914 136.037479"></polygon>
                <polygon id="Rectangle" transform="translate(99.402162, 138.343893) rotate(158.000000) translate(-99.402162, -138.343893) " points="95.431118 135.861991 103.373206 135.861991 103.373206 140.825796 95.431118 140.825796"></polygon>
                <polygon id="Rectangle" transform="translate(89.113770, 141.599852) rotate(167.000000) translate(-89.113770, -141.599852) " points="85.1427263 139.11795 93.0848139 139.11795 93.0848139 144.081755 85.1427263 144.081755"></polygon>
                <polygon id="Rectangle" transform="translate(78.448934, 143.247137) rotate(176.000000) translate(-78.448934, -143.247137) " points="74.4778904 140.765235 82.419978 140.765235 82.419978 145.72904 74.4778904 145.72904"></polygon>
                <polygon id="Rectangle" transform="translate(67.657629, 143.247137) rotate(184.000000) translate(-67.657629, -143.247137) " points="63.6865849 140.765235 71.6286725 140.765235 71.6286725 145.72904 63.6865849 145.72904"></polygon>
                <polygon id="Rectangle" transform="translate(56.992793, 141.599852) rotate(193.000000) translate(-56.992793, -141.599852) " points="53.0217489 139.11795 60.9638365 139.11795 60.9638365 144.081755 53.0217489 144.081755"></polygon>
                <polygon id="Rectangle" transform="translate(46.704401, 138.343893) rotate(202.000000) translate(-46.704401, -138.343893) " points="42.7333572 135.861991 50.6754448 135.861991 50.6754448 140.825796 42.7333572 140.825796"></polygon>
                <polygon id="Rectangle" transform="translate(37.033605, 133.555577) rotate(211.000000) translate(-37.033605, -133.555577) " points="33.0625609 131.073674 41.0046485 131.073674 41.0046485 136.037479 33.0625609 136.037479"></polygon>
                <polygon id="Rectangle" transform="translate(28.207079, 127.347137) rotate(220.000000) translate(-28.207079, -127.347137) " points="24.2360353 124.865235 32.1781229 124.865235 32.1781229 129.82904 24.2360353 129.82904"></polygon>
                <polygon id="Rectangle" transform="translate(20.431711, 119.864096) rotate(228.000000) translate(-20.431711, -119.864096) " points="16.4606667 117.382193 24.4027543 117.382193 24.4027543 122.345998 16.4606667 122.345998"></polygon>
                <polygon id="Rectangle" transform="translate(13.889747, 111.281847) rotate(237.000000) translate(-13.889747, -111.281847) " points="9.91870311 108.799945 17.8607907 108.799945 17.8607907 113.76375 9.91870311 113.76375"></polygon>
                <polygon id="Rectangle" transform="translate(8.734526, 101.801553) rotate(246.000000) translate(-8.734526, -101.801553) " points="4.76348261 99.3196507 12.7055702 99.3196507 12.7055702 104.283455 4.76348261 104.283455"></polygon>
                <polygon id="Rectangle" transform="translate(5.086883, 91.645423) rotate(255.000000) translate(-5.086883, -91.645423) " points="1.11583922 89.163521 9.05792682 89.163521 9.05792682 94.1273257 1.11583922 94.1273257"></polygon>
                <polygon id="Rectangle" transform="translate(3.032314, 81.051509) rotate(263.000000) translate(-3.032314, -81.051509) " points="-0.938729404 78.5696066 7.0033582 78.5696066 7.0033582 83.5334114 -0.938729404 83.5334114"></polygon>
                <polygon id="Rectangle" transform="translate(2.618978, 70.268122) rotate(272.000000) translate(-2.618978, -70.268122) " points="-1.3520659 67.78622 6.5900217 67.78622 6.5900217 72.7500247 -1.3520659 72.7500247"></polygon>
                <polygon id="Rectangle" transform="translate(3.856562, 59.548017) rotate(281.000000) translate(-3.856562, -59.548017) " points="-0.114482027 57.0661146 7.82760558 57.0661146 7.82760558 62.0299193 -0.114482027 62.0299193"></polygon>
                <polygon id="Rectangle" transform="translate(6.716058, 49.142463) rotate(290.000000) translate(-6.716058, -49.142463) " points="2.74501431 46.6605605 10.6871019 46.6605605 10.6871019 51.6243653 2.74501431 51.6243653"></polygon>
                <polygon id="Rectangle" transform="translate(11.130443, 39.295358) rotate(299.000000) translate(-11.130443, -39.295358) " points="7.15939894 36.8134552 15.1014865 36.8134552 15.1014865 41.77726 7.15939894 41.77726"></polygon>
                <polygon id="Rectangle" transform="translate(16.996246, 30.237509) rotate(307.000000) translate(-16.996246, -30.237509) " points="13.0252024 27.7556065 20.96729 27.7556065 20.96729 32.7194113 13.0252024 32.7194113"></polygon>
                <polygon id="Rectangle" transform="translate(24.175979, 22.181225) rotate(316.000000) translate(-24.175979, -22.181225) " points="20.2049353 19.6993226 28.1470229 19.6993226 28.1470229 24.6631274 20.2049353 24.6631274"></polygon>
                <polygon id="Rectangle" transform="translate(32.501355, 15.315338) rotate(325.000000) translate(-32.501355, -15.315338) " points="28.5303107 12.8334361 36.4723983 12.8334361 36.4723983 17.7972408 28.5303107 17.7972408"></polygon>
                <polygon id="Rectangle" transform="translate(41.777233, 9.800780) rotate(334.000000) translate(-41.777233, -9.800780) " points="37.8061889 7.31887741 45.7482765 7.31887741 45.7482765 12.2826822 37.8061889 12.2826822"></polygon>
                <polygon id="Rectangle" transform="translate(51.786195, 5.766806) rotate(342.000000) translate(-51.786195, -5.766806) " points="47.8151512 3.28490319 55.7572388 3.28490319 55.7572388 8.24870795 47.8151512 8.24870795"></polygon>
                <polygon id="Rectangle" transform="translate(62.293640, 3.307969) rotate(351.000000) translate(-62.293640, -3.307969) " points="58.322596 0.826066372 66.2646836 0.826066372 66.2646836 5.78987113 58.322596 5.78987113"></polygon>
            </g>
            <path d="M89.5,22 C125.122366,22 154,50.8776336 154,86.5 C154,122.122366 125.122366,151 89.5,151 C53.8776336,151 25,122.122366 25,86.5 C25,50.8776336 53.8776336,22 89.5,22 Z M89.5,23 C54.4299184,23 26,51.4299184 26,86.5 C26,121.570082 54.4299184,150 89.5,150 C124.570082,150 153,121.570082 153,86.5 C153,51.4299184 124.570082,23 89.5,23 Z" id="Oval" fill="#10162F" fill-rule="nonzero"></path>
            <path d="M89.9679299,14.9855219 C129.170431,14.9855219 160.950338,46.7654285 160.950338,85.9679299 C160.950338,125.170431 129.170431,156.950338 89.9679299,156.950338 C50.7654285,156.950338 18.9855219,125.170431 18.9855219,85.9679299 C18.9855219,46.7654285 50.7654285,14.9855219 89.9679299,14.9855219 Z M89.9679299,15.9855219 C51.3177132,15.9855219 19.9855219,47.3177132 19.9855219,85.9679299 C19.9855219,124.618147 51.3177132,155.950338 89.9679299,155.950338 C128.618147,155.950338 159.950338,124.618147 159.950338,85.9679299 C159.950338,47.3177132 128.618147,15.9855219 89.9679299,15.9855219 Z" id="Oval" fill="#10162F" fill-rule="nonzero"></path>
            <path d="M89.5458015,25 C123.536609,25 151.091603,52.5549939 151.091603,86.5458015 C151.091603,120.536609 123.536609,148.091603 89.5458015,148.091603 C55.5549939,148.091603 28,120.536609 28,86.5458015 C28,52.5549939 55.5549939,25 89.5458015,25 Z M89.5458015,26 C56.1072787,26 29,53.1072787 29,86.5458015 C29,119.984324 56.1072787,147.091603 89.5458015,147.091603 C122.984324,147.091603 150.091603,119.984324 150.091603,86.5458015 C150.091603,53.1072787 122.984324,26 89.5458015,26 Z" id="Oval" fill="#10162F" fill-rule="nonzero"></path>
            <path d="M89.5916031,28 C121.950852,28 148.183206,54.2323542 148.183206,86.5916031 C148.183206,118.950852 121.950852,145.183206 89.5916031,145.183206 C57.2323542,145.183206 31,118.950852 31,86.5916031 C31,54.2323542 57.2323542,28 89.5916031,28 Z M89.5916031,29 C57.784639,29 32,54.784639 32,86.5916031 C32,118.398567 57.784639,144.183206 89.5916031,144.183206 C121.398567,144.183206 147.183206,118.398567 147.183206,86.5916031 C147.183206,54.784639 121.398567,29 89.5916031,29 Z" id="Oval" fill="#10162F" fill-rule="nonzero"></path>
            <path d="M89.5,31 C120.151804,31 145,55.8481964 145,86.5 C145,117.151804 120.151804,142 89.5,142 C58.8481964,142 34,117.151804 34,86.5 C34,55.8481964 58.8481964,31 89.5,31 Z M89.5,32 C59.4004811,32 35,56.4004811 35,86.5 C35,116.599519 59.4004811,141 89.5,141 C119.599519,141 144,116.599519 144,86.5 C144,56.4004811 119.599519,32 89.5,32 Z" id="Oval" fill="#10162F" fill-rule="nonzero"></path>
            <path d="M89.5,34 C118.494949,34 142,57.5050506 142,86.5 C142,115.494949 118.494949,139 89.5,139 C60.5050506,139 37,115.494949 37,86.5 C37,57.5050506 60.5050506,34 89.5,34 Z M89.5,35 C61.0573354,35 38,58.0573354 38,86.5 C38,114.942665 61.0573354,138 89.5,138 C117.942665,138 141,114.942665 141,86.5 C141,58.0573354 117.942665,35 89.5,35 Z" id="Oval" fill="#10162F" fill-rule="nonzero"></path>
            <path d="M89.5,37 C116.838095,37 139,59.1619049 139,86.5 C139,113.838095 116.838095,136 89.5,136 C62.1619049,136 40,113.838095 40,86.5 C40,59.1619049 62.1619049,37 89.5,37 Z M89.5,38 C62.7141896,38 41,59.7141896 41,86.5 C41,113.28581 62.7141896,135 89.5,135 C116.28581,135 138,113.28581 138,86.5 C138,59.7141896 116.28581,38 89.5,38 Z" id="Oval" fill="#10162F" fill-rule="nonzero"></path>
            <path d="M89.5,40 C115.181241,40 136,60.8187591 136,86.5 C136,112.181241 115.181241,133 89.5,133 C63.8187591,133 43,112.181241 43,86.5 C43,60.8187591 63.8187591,40 89.5,40 Z M89.5,41 C64.3710439,41 44,61.3710439 44,86.5 C44,111.628956 64.3710439,132 89.5,132 C114.628956,132 135,111.628956 135,86.5 C135,61.3710439 114.628956,41 89.5,41 Z" id="Oval" fill="#10162F" fill-rule="nonzero"></path>
            <polygon id="Path-6" fill="#10162F" fill-rule="nonzero" points="135.899484 83.7681224 135.899484 84.7681224 104.85791 84.7681224 104.85791 83.7681224"></polygon>
            <g id="Group-2" transform="translate(58.647740, 84.149442) scale(-1, 1) translate(-58.647740, -84.149442) translate(43.395996, 74.030762)" fill="#10162F" fill-rule="nonzero">
                <polygon id="Path-6-Copy-7" points="30.5034876 9.73736064 30.5034876 10.7373606 0 10.7373606 0 9.73736064"></polygon>
                <polygon id="Path-6-Copy-8" points="16.6558764 3.5 16.655 7.737 30.0415736 7.73736064 30.0415736 8.73736064 15.6558764 8.73736064 15.655 4.5 3.5144043 4.5 3.5144043 3.5"></polygon>
                <polygon id="Path-6-Copy-9" transform="translate(18.277989, 18.118680) scale(-1, 1) translate(-18.277989, -18.118680) " points="16.6558764 15.5 16.655 19.737 30.0415736 19.7373606 30.0415736 20.7373606 15.6558764 20.7373606 15.655 16.5 6.5144043 16.5 6.5144043 15.5"></polygon>
                <polygon id="Path-6-Copy-10" points="18.734375 1.5 18.734 5.737 30.0415736 5.73736064 30.0415736 6.73736064 17.734375 6.73736064 17.734 2.5 3.5144043 2.5 3.5144043 1.5"></polygon>
                <polygon id="Path-6-Copy-11" transform="translate(18.328247, 16.118680) scale(-1, 1) translate(-18.328247, -16.118680) " points="18.8348913 13.5 18.834 17.737 30.1420898 17.7373606 30.1420898 18.7373606 17.8348913 18.7373606 17.834 14.5 6.5144043 14.5 6.5144043 13.5"></polygon>
                <polygon id="Path-6-Copy-12" points="20.6513672 -0.5 20.651 3.737 30.0415736 3.73736064 30.0415736 4.73736064 19.6513672 4.73736064 19.651 0.5 3.5144043 0.5 3.5144043 -0.5"></polygon>
                <polygon id="Path-6-Copy-13" transform="translate(18.508946, 14.118680) scale(-1, 1) translate(-18.508946, -14.118680) " points="21.3066406 11.5 21.306 15.737 30.5034876 15.7373606 30.5034876 16.7373606 20.3066406 16.7373606 20.306 12.5 6.5144043 12.5 6.5144043 11.5"></polygon>
            </g>
            <polygon id="Path-6-Copy" fill="#10162F" fill-rule="nonzero" points="121.513787 77.5307617 121.513 81.768 134.899484 81.7681224 134.899484 82.7681224 120.513787 82.7681224 120.513 78.53 108.372314 78.5307617 108.372314 77.5307617"></polygon>
            <polygon id="Path-6-Copy-4" fill="#10162F" fill-rule="nonzero" transform="translate(123.135899, 92.149442) scale(-1, 1) translate(-123.135899, -92.149442) " points="121.513787 89.5307617 121.513 93.768 134.899484 93.7681224 134.899484 94.7681224 120.513787 94.7681224 120.513 90.53 111.372314 90.5307617 111.372314 89.5307617"></polygon>
            <polygon id="Path-6-Copy-2" fill="#10162F" fill-rule="nonzero" points="123.592285 75.5307617 123.592 79.768 134.899484 79.7681224 134.899484 80.7681224 122.592285 80.7681224 122.592 76.53 108.372314 76.5307617 108.372314 75.5307617"></polygon>
            <polygon id="Path-6-Copy-5" fill="#10162F" fill-rule="nonzero" transform="translate(123.186157, 90.149442) scale(-1, 1) translate(-123.186157, -90.149442) " points="123.692801 87.5307617 123.692 91.768 135 91.7681224 135 92.7681224 122.692801 92.7681224 122.692 88.53 111.372314 88.5307617 111.372314 87.5307617"></polygon>
            <polygon id="Path-6-Copy-3" fill="#10162F" fill-rule="nonzero" points="125.509277 73.5307617 125.509 77.768 134.899484 77.7681224 134.899484 78.7681224 124.509277 78.7681224 124.509 74.53 108.372314 74.5307617 108.372314 73.5307617"></polygon>
            <polygon id="Path-6-Copy-6" fill="#10162F" fill-rule="nonzero" transform="translate(123.635899, 88.149442) scale(-1, 1) translate(-123.635899, -88.149442) " points="126.700021 85.5307617 126.7 89.768 135.899484 89.7681224 135.899484 90.7681224 125.700021 90.7681224 125.7 86.53 111.372314 86.5307617 111.372314 85.5307617"></polygon>
            <path d="M90,7 C133.630495,7 169,42.3695048 169,86 C169,129.630495 133.630495,165 90,165 C46.3695048,165 11,129.630495 11,86 C11,42.3695048 46.3695048,7 90,7 Z M90,8 C46.9217895,8 12,42.9217895 12,86 C12,129.07821 46.9217895,164 90,164 C133.07821,164 168,129.07821 168,86 C168,42.9217895 133.07821,8 90,8 Z" id="Oval-Copy-2" fill="#10162F" fill-rule="nonzero"></path>
            <path d="M81.609375,37 L81.609375,53.3642578 L88.6669922,53.3642578 L88.6669922,37 L97.9960938,37 L97.9960938,53.3642578 C104.556966,53.4000651 109.356934,54.2996419 112.395996,56.0629883 C116.95459,58.7080078 121.387695,64.0473633 121.387695,69.496582 C121.387695,74.5656227 120.125611,76.3026258 118.99283,77.9066021 L118.740723,78.2666016 L118.740723,78.2666016 C117.948405,79.4147135 116.122721,81.4231771 113.263672,84.2919922 C118.570964,86.1764323 122.145508,88.5922852 123.987305,91.5395508 C126.75,95.9604492 127.572266,99.1577148 127.572266,103.344238 C127.572266,107.530762 124.3125,115.351074 117.967773,118.724609 C111.623047,122.098145 104.605957,124.388184 97.9960938,124.388184 L97.9960938,139.182617 L97.9960938,139.182617 L88.6669922,139.182617 L88.6669922,124.388184 L81.609375,124.388184 L81.609375,139.182617 L72.5898438,139.182617 L72.5898438,123.620117 L53,123.620117 L55.5161133,114.221191 L63.4282227,114.221191 L63.4282227,62.4609375 L53,62.4609375 L53,53.3642578 L72.5898438,53.3642578 L72.5898438,37 L81.609375,37 Z M93.3639181,91.8514429 L92.9162303,91.85175 C92.5639912,91.8529771 92.2657511,91.8560978 92.0358646,91.857104 L80.1298828,91.8574219 L80.1298828,91.8574219 L80.1298828,114.191895 L91.7856445,114.191895 C98.480306,113.883301 102.866048,112.761719 104.942871,110.827148 C108.058105,107.925293 108.372314,104.433838 108.372314,102.178955 C108.372314,99.9240723 107.029297,96.1911621 104.00293,93.911377 C101.526811,92.0460982 96.1945377,91.8581321 93.3639181,91.8514429 Z M92.0772101,62.2407922 L80.1298828,62.2407227 L80.1298828,62.2407227 L80.1298828,83.2299805 L91.7856445,83.2299805 C95.1749674,83.206543 97.9080404,82.2275391 99.9848633,80.2929688 C103.100098,77.3911133 103.682617,74.9902344 103.682617,72.7353516 C103.682617,70.4804688 103.01123,66.800293 99.9848633,64.5205078 C97.0530701,62.3119659 93.8880324,62.242949 92.0772101,62.2407922 Z" id="Combined-Shape" fill="#FFD300"></path>
            <path d="M82.109375,36.5 L82.109,52.864 L88.166,52.864 L88.1669922,36.5 L98.4960938,36.5 L98.496,52.868 L98.5976252,52.8699794 C104.53713,52.9513235 109.021085,53.7589345 112.05869,55.3103167 L112.357629,55.4679348 L112.646929,55.6305153 C117.87231,58.6624229 121.887695,64.2774492 121.887695,69.496582 C121.887695,73.3519962 121.277499,75.4071191 119.875448,77.5119115 L119.0572,78.6856583 L118.84165,78.9767495 L118.592113,79.2958367 L118.308552,79.6429764 L117.990927,80.0182253 L117.6392,80.4216402 L117.253334,80.8532776 L116.833289,81.3131943 L116.139052,82.056217 L115.633393,82.5870799 L114.519096,83.7342951 L114.167,84.091 L114.423883,84.1871467 C118.962337,85.9272923 122.168675,88.0959698 124.032484,90.7080524 L124.227041,90.9896157 L124.41132,91.2745766 C127.112676,95.5973189 128.072266,98.8637101 128.072266,103.344238 C128.072266,108.680038 123.953491,116.108246 118.202508,119.166084 C111.739057,122.602746 105.167674,124.632179 99.1530781,124.865547 L98.496,124.883 L98.4960938,139.682617 L88.1669922,139.682617 L88.166,124.888 L82.109,124.888 L82.109375,139.682617 L72.0898438,139.682617 L72.089,124.12 L52.3485427,124.120117 L55.1323582,113.721191 L62.928,113.721 L62.928,62.96 L52.5,62.9609375 L52.5,52.8642578 L72.089,52.864 L72.0898438,36.5 L82.109375,36.5 Z M81.109,37.5 L73.089,37.5 L73.0898438,53.8642578 L53.5,53.864 L53.5,61.96 L63.9282227,61.9609375 L63.9282227,114.721191 L55.9,114.721 L53.65,123.12 L73.0898438,123.120117 L73.089,138.682 L81.109,138.682 L81.109375,123.888184 L89.1669922,123.888184 L89.166,138.682 L97.496,138.682 L97.4960938,123.888184 L97.9960938,123.888184 C104.138975,123.888184 110.986941,121.870082 117.733039,118.283135 C123.14506,115.405526 127.072266,108.322812 127.072266,103.344238 C127.072266,99.0534002 126.166494,95.9702036 123.56329,91.804525 C121.845915,89.0563608 118.52279,86.7608206 113.579784,84.938089 L113.096372,84.7631723 L112.351699,84.4987643 L113.209676,83.6371867 L113.786416,83.0531211 L114.592521,82.2262185 L115.557026,81.2157458 L116.197548,80.5271329 L116.585051,80.1011127 L117.106964,79.5117755 L117.415301,79.1520773 L117.818325,78.6624304 L118.04731,78.3693306 L118.2445,78.1029475 L118.899558,77.1691244 C120.295979,75.1487406 120.887695,73.284776 120.887695,69.496582 C120.887695,64.6770783 117.087778,59.3633579 112.145064,56.4954612 C109.285577,54.8363095 104.759415,53.9540098 98.5777462,53.8698057 L97.4960938,53.8615364 L97.496,37.5 L89.166,37.5 L89.1669922,53.8642578 L81.109375,53.8642578 L81.109,37.5 Z M93.3650997,91.3514443 C98.3445332,91.3632115 102.165116,91.9009446 104.303774,93.5120119 C107.120117,95.6335837 108.872314,99.3145619 108.872314,102.178955 C108.872314,105.795641 107.983378,108.678222 105.283673,111.19301 C103.543058,112.8144 100.351308,113.871306 95.6823877,114.394029 L94.7602733,114.488539 C93.9764619,114.561753 93.1541788,114.62112 92.2933149,114.666769 L91.7856445,114.691895 L79.6298828,114.691895 L79.6298828,91.3574352 L93.3650997,91.3514443 Z M93.3627365,92.3514415 L92.035878,92.357104 L80.629,92.357 L80.629,113.691 L91.7626212,113.692425 C98.1785622,113.396679 102.415311,112.347687 104.446311,110.60066 L104.60207,110.461287 C107.063027,108.168893 107.872314,105.544596 107.872314,102.178955 C107.872314,99.6220541 106.262003,96.2391476 103.702085,94.310742 C101.806834,92.883035 98.109573,92.362659 93.3627365,92.3514415 Z M92.0778056,61.7407197 C95.4152002,61.7447676 97.8036765,62.2514097 100.285708,64.1211427 C102.986586,66.1557344 104.182617,69.4119389 104.182617,72.7353516 C104.182617,75.6509854 103.168298,78.0109039 100.325665,80.6588299 C98.239234,82.6023499 95.5253955,83.6223098 92.203984,83.7222761 L91.7856445,83.7299805 L79.6298828,83.7299805 L79.6298828,61.7407197 L92.0778056,61.7407197 Z M92.0766145,62.7407919 L80.629,62.74 L80.629,82.729 L91.7821871,82.7299924 C95.0517818,82.7073829 97.6637813,81.7717482 99.6440619,79.9271076 C102.282425,77.4694596 103.182617,75.3750707 103.182617,72.7353516 C103.182617,69.6966784 102.095229,66.7362559 99.6840186,64.9198729 C97.5062175,63.279319 95.3925927,62.7838342 92.4489567,62.7435115 L92.0766145,62.7407919 Z" id="Combined-Shape" fill="#10162F" fill-rule="nonzero"></path>
        </g>
    </g>
</svg>